HIERARCHY
ROOT Hips
{
	OFFSET 0.00 0.00 0.00
	CHANNELS 6 Xposition Yposition Zposition Xrotation Yrotation Zrotation
	JOINT Spine
	{
		OFFSET 0.00000 7.17041 0.00000
		CHANNELS 3 Xrotation Yrotation Zrotation
		JOINT Head
		{
			OFFSET 0.00000 14.27615 0.00000
			CHANNELS 3 Xrotation Yrotation Zrotation
			End Site
			{
				OFFSET 0.00000 4.52755 0.00000
			}
		}
		JOINT LeftShoulder
		{
			OFFSET 0.00000 10.71824 0.00000
			CHANNELS 3 Xrotation Yrotation Zrotation
			JOINT LeftArm
			{
				OFFSET 7.05887 0.00000 0.00000
				CHANNELS 3 Xrotation Yrotation Zrotation
				JOINT LeftForeArm
				{
					OFFSET 10.95552 0.00000 0.00000
					CHANNELS 3 Yrotation Zrotation Xrotation
					JOINT LeftHand
					{
						OFFSET 8.19372 0.00000 0.00000
						CHANNELS 3 Xrotation Yrotation Zrotation
						JOINT LeftHandThumb1
						{
							OFFSET 0.00000 0.00000 0.00000
							CHANNELS 3 Xrotation Zrotation Yrotation
							End Site
							{
								OFFSET 0.00000 0.00000 3.93700
							}
						}
						End Site
						{
							OFFSET 3.93700 0.00000 0.00000
						}
					}
				}
			}
		}
		JOINT RightShoulder
		{
			OFFSET 0.00000 10.71824 0.00000
			CHANNELS 3 Xrotation Yrotation Zrotation
			JOINT RightArm
			{
				OFFSET -7.05887 0.00000 0.00000
				CHANNELS 3 Xrotation Yrotation Zrotation
				JOINT RightForeArm
				{
					OFFSET -10.95552 0.00000 0.00000
					CHANNELS 3 Yrotation Zrotation Xrotation
					JOINT RightHand
					{
						OFFSET -8.19372 0.00000 0.00000
						CHANNELS 3 Xrotation Yrotation Zrotation
						JOINT RightHandThumb1
						{
							OFFSET 0.00000 0.00000 0.00000
							CHANNELS 3 Xrotation Zrotation Yrotation
							End Site
							{
								OFFSET 0.00000 0.00000 3.93700
							}
						}
						End Site
						{
							OFFSET -3.93700 0.00000 0.00000
						}
					}
				}
			}
		}
	}
	JOINT LeftUpLeg
	{
		OFFSET 4.31835 0.00000 0.00000
		CHANNELS 3 Xrotation Yrotation Zrotation
		JOINT LeftLeg
		{
			OFFSET 0.00000 -17.32364 0.00000
			CHANNELS 3 Xrotation Yrotation Zrotation
			JOINT LeftFoot
			{
				OFFSET 0.00000 -16.27037 0.00000
				CHANNELS 3 Xrotation Yrotation Zrotation
				JOINT LeftToeBase
				{
					OFFSET 0.00000 -1.27412 4.75510
					CHANNELS 3 Xrotation Yrotation Zrotation
					End Site
					{
						OFFSET 0.00000 0.00000 2.95275
					}
				}
			}
		}
	}
	JOINT RightUpLeg
	{
		OFFSET -4.31835 0.00000 0.00000
		CHANNELS 3 Xrotation Yrotation Zrotation
		JOINT RightLeg
		{
			OFFSET 0.00000 -17.32364 0.00000
			CHANNELS 3 Xrotation Yrotation Zrotation
			JOINT RightFoot
			{
				OFFSET 0.00000 -16.27037 0.00000
				CHANNELS 3 Xrotation Yrotation Zrotation
				JOINT RightToeBase
				{
					OFFSET 0.00000 -1.27412 4.75510
					CHANNELS 3 Xrotation Yrotation Zrotation
					End Site
					{
						OFFSET 0.00000 0.00000 2.95275
					}
				}
			}
		}
	}
}
MOTION
Frames: 11
Frame Time: 0.008333
 -5.7100 35.2492 -10.7976 -4.9126 -9.5551 -6.8545 4.0511 2.5174 9.2795 5.1481 7.0182 -5.8675 20.8140 13.5269 -16.4992 -19.0503 -27.7155 -75.2320 -15.6291 -0.0000 11.0517 -0.0780 -0.6263 -7.0968 33.1476 -0.0000 26.2537 4.3831 -1.3552 2.6199 4.8601 39.8752 67.1314 23.3988 -0.0000 26.4880 -0.1522 1.1206 7.7346 32.8623 0.0000 -24.3270 11.5224 18.6399 4.5645 -8.7346 0.0000 -0.0000 -15.2910 29.3977 8.7144 23.0829 0.0000 -0.0000 8.9241 -3.6577 3.3699 -4.1230 -0.0000 0.0000 -2.5873 -22.7195 -1.9526 13.7871 -0.0000 0.0000
 -5.7103 35.2490 -10.7974 -4.9159 -9.5610 -6.8581 4.0505 2.5341 9.2852 5.1508 7.0302 -5.8624 20.8289 13.5272 -16.4933 -19.0472 -27.7055 -75.2220 -15.6150 -0.0000 11.0205 -0.0812 -0.6544 -7.0696 33.1476 -0.0000 26.2537 4.4132 -1.3652 2.6334 4.8454 39.8260 67.1367 23.3681 -0.0000 26.4137 -0.1509 1.1259 7.6347 32.8623 0.0000 -24.3270 11.5243 18.6410 4.5660 -8.7263 0.0000 0.0000 -15.3174 29.4015 8.7613 23.1040 -0.0000 0.0000 8.9262 -3.6541 3.3727 -4.1219 -0.0000 0.0000 -2.5902 -22.7140 -1.9656 13.7976 0.0000 -0.0000
 -5.7112 35.2489 -10.7972 -4.9176 -9.5576 -6.8592 4.0513 2.5385 9.2858 5.1505 7.0382 -5.8559 20.8257 13.5235 -16.4841 -19.0219 -27.6474 -75.2096 -15.6307 -0.0000 11.0660 -0.0839 -0.6761 -7.0747 33.1476 -0.0000 26.2537 4.3814 -1.3606 2.6461 4.8869 39.7478 67.1508 23.3556 -0.0000 26.3225 -0.1555 1.1466 7.7250 32.8623 0.0000 -24.3270 11.5243 18.6604 4.5695 -8.7338 0.0000 -0.0000 -15.2922 29.3822 8.7227 23.0891 0.0000 0.0000 8.9305 -3.6517 3.3745 -4.1246 0.0000 0.0000 -2.6000 -22.7123 -1.9924 13.8331 0.0000 -0.0000
 -5.7118 35.2487 -10.7969 -4.9179 -9.5669 -6.8621 4.0494 2.5426 9.2851 5.1566 7.0365 -5.8395 20.8340 13.5310 -16.4720 -19.0035 -27.6630 -75.1966 -15.6248 -0.0000 11.0866 -0.0894 -0.7180 -7.0937 33.1476 -0.0000 26.2537 4.4082 -1.3607 2.6657 4.8905 39.7296 67.1374 23.3577 -0.0000 26.2821 -0.1523 1.1351 7.6439 32.8623 0.0000 -24.3270 11.5267 18.6734 4.5712 -8.7410 -0.0000 0.0000 -15.3133 29.3668 8.7553 23.1637 -0.0000 0.0000 8.9309 -3.6195 3.3754 -4.1310 -0.0000 -0.0000 -2.5982 -22.7361 -1.9829 13.8569 0.0000 0.0000
 -5.7131 35.2488 -10.7968 -4.9186 -9.5780 -6.8684 4.0493 2.5463 9.2855 5.1594 7.0420 -5.8255 20.8480 13.5372 -16.4640 -19.0008 -27.6596 -75.1855 -15.6211 -0.0000 11.1395 -0.0934 -0.7483 -7.1155 33.1476 -0.0000 26.2537 4.4295 -1.3572 2.6863 4.8992 39.7097 67.1184 23.3717 -0.0000 26.2398 -0.1479 1.0929 7.7086 32.8623 0.0000 -24.3270 11.5340 18.6603 4.5742 -8.7451 -0.0000 0.0000 -15.3078 29.4106 8.7465 23.1018 0.0000 -0.0000 8.9290 -3.6112 3.3810 -4.1290 0.0000 -0.0000 -2.5719 -22.7307 -1.9457 13.7304 0.0000 -0.0000
 -5.7146 35.2486 -10.7973 -4.9237 -9.5801 -6.8718 4.0592 2.5456 9.2798 5.1519 7.0299 -5.8061 20.8611 13.5367 -16.4520 -18.9988 -27.6727 -75.1717 -15.6242 -0.0000 11.1941 -0.0952 -0.7608 -7.1299 33.1476 -0.0000 26.2537 4.4200 -1.3629 2.7014 4.9047 39.6683 67.1290 23.3796 -0.0000 26.2220 -0.1505 1.1026 7.7711 32.8623 0.0000 -24.3270 11.5348 18.6739 4.5814 -8.7472 0.0000 0.0000 -15.2818 29.3916 8.7289 23.0355 -0.0000 0.0000 8.9337 -3.6220 3.3872 -4.1300 -0.0000 -0.0000 -2.5796 -22.7292 -1.9363 13.7796 -0.0000 0.0000
 -5.7158 35.2487 -10.7976 -4.9250 -9.5887 -6.8770 4.0635 2.5394 9.2803 5.1535 7.0597 -5.7844 20.8711 13.5350 -16.4380 -18.9847 -27.6976 -75.1530 -15.6255 -0.0000 11.2489 -0.0918 -0.7313 -7.1535 33.1476 -0.0000 26.2537 4.4104 -1.3515 2.7112 4.9117 39.6157 67.1423 23.3911 -0.0000 26.2228 -0.1511 1.1055 7.7834 32.8623 0.0000 -24.3270 11.5369 18.6887 4.5850 -8.7544 0.0000 -0.0000 -15.2845 29.3810 8.7449 23.0586 0.0000 -0.0000 8.9344 -3.6100 3.3920 -4.1323 -0.0000 0.0000 -2.5765 -22.7274 -1.9457 13.8102 -0.0000 0.0000
 -5.7133 35.2486 -10.7952 -4.9330 -9.6618 -6.8926 4.0584 2.5811 9.3114 5.1683 7.0776 -5.7978 20.8931 13.5547 -16.4615 -18.9705 -27.7485 -75.1354 -15.6137 -0.0000 11.2840 -0.0936 -0.7460 -7.1517 33.1476 -0.0000 26.2537 4.4136 -1.3449 2.6909 4.9174 39.5990 67.1492 23.4130 -0.0000 26.2520 -0.1383 1.0265 7.6755 32.8623 0.0000 -24.3270 11.5660 18.7594 4.5745 -8.7805 0.0000 -0.0000 -15.2763 29.3905 8.7162 23.0562 -0.0000 0.0000 8.9225 -3.5482 3.3873 -4.1206 -0.0000 -0.0000 -2.5651 -22.7111 -1.9045 13.7814 0.0000 0.0000
 -5.7119 35.2487 -10.7945 -4.9367 -9.7030 -6.8989 4.0605 2.5968 9.3250 5.1747 7.0821 -5.8049 20.9000 13.5564 -16.4652 -18.9375 -27.8102 -75.1074 -15.6090 -0.0000 11.2913 -0.0929 -0.7392 -7.1610 33.1476 -0.0000 26.2537 4.4250 -1.3432 2.6805 4.9174 39.6162 67.1432 23.4261 -0.0000 26.2486 -0.1368 1.0203 7.6382 32.8623 0.0000 -24.3270 11.5811 18.7893 4.5661 -8.7969 0.0000 0.0000 -15.2766 29.4095 8.7208 23.0728 0.0000 0.0000 8.9124 -3.5177 3.3817 -4.1105 -0.0000 -0.0000 -2.5651 -22.6916 -1.9069 13.7936 0.0000 0.0000
 -5.7133 35.2486 -10.7964 -4.9390 -9.7130 -6.9028 4.0722 2.5891 9.3183 5.1697 7.0791 -5.7792 20.9093 13.5430 -16.4463 -18.9346 -27.8228 -75.0915 -15.6054 -0.0000 11.3475 -0.0922 -0.7294 -7.2019 33.1476 -0.0000 26.2537 4.4298 -1.3417 2.6905 4.8934 39.5950 67.1536 23.4396 -0.0000 26.2646 -0.1370 1.0216 7.6378 32.8623 0.0000 -24.3270 11.5784 18.8014 4.5711 -8.7940 -0.0000 -0.0000 -15.2760 29.4059 8.7211 23.0566 0.0000 -0.0000 8.9050 -3.5248 3.3875 -4.0988 0.0000 0.0000 -2.5641 -22.6771 -1.9013 13.7978 -0.0000 0.0000
 -5.7155 35.2488 -10.7973 -4.9402 -9.7187 -6.9081 4.0773 2.5820 9.3124 5.1774 7.0570 -5.7526 20.8997 13.5375 -16.4342 -18.9142 -27.8406 -75.0645 -15.5878 -0.0000 11.3988 -0.0951 -0.7499 -7.2295 33.1476 -0.0000 26.2537 4.4194 -1.3498 2.7009 4.8954 39.5950 67.1534 23.4569 -0.0000 26.2860 -0.1386 1.0323 7.6462 32.8623 0.0000 -24.3270 11.5762 18.8035 4.5791 -8.7937 0.0000 0.0000 -15.2805 29.4068 8.7280 23.0584 0.0000 0.0000 8.9057 -3.5470 3.3967 -4.0996 -0.0000 -0.0000 -2.5546 -22.6503 -1.9040 13.7837 -0.0000 0.0000
